PathFileType   4   (X/Y/Z)																																																																																																																							
DataRate	CameraRate	NumFrames	NumMarkers	Units	OrigDataRate	OrigDataStartFrame	OrigNumFrames																																																																																																																
120	120	8	39	mm	120	79	156																																																																																																																
Frame#	Time	Sternum	R.Acromium	L.Acromium	Top.Head	R.ASIS	L.ASIS	V.Sacral	R.Thigh.Upper	R.Thigh.Front	R.Thigh.Rear	R.Knee.Lat	R.Knee.Med	R.Shank.Upper	R.Shank.Front	R.Shank.Rear	R.Ankle.Lat	R.Ankle.Med	R.Heel	R.Midfoot.Sup	R.Midfoot.Lat	R.Toe.Lat	R.Toe.Med	R.Toe.Tip	L.Thigh.Upper	L.Thigh.Front	L.Thigh.Rear	L.Knee.Lat	L.Knee.Med	L.Shank.Upper	L.Shank.Front	L.Shank.Rear	L.Ankle.Lat	L.Ankle.Med	L.Heel	L.Midfoot.Sup	L.Midfoot.Lat	L.Toe.Lat	L.Toe.Med	L.Toe.Tip																																																																															
 	 	X1	Y1	Z1	X2	Y2	Z2	X3	Y3	Z3	X4	Y4	Z4	X5	Y5	Z5	X6	Y6	Z6	X7	Y7	Z7	X8	Y8	Z8	X9	Y9	Z9	X10	Y10	Z10	X11	Y11	Z11	X12	Y12	Z12	X13	Y13	Z13	X14	Y14	Z14	X15	Y15	Z15	X16	Y16	Z16	X17	Y17	Z17	X18	Y18	Z18	X19	Y19	Z19	X20	Y20	Z20	X21	Y21	Z21	X22	Y22	Z22	X23	Y23	Z23	X24	Y24	Z24	X25	Y25	Z25	X26	Y26	Z26	X27	Y27	Z27	X28	Y28	Z28	X29	Y29	Z29	X30	Y30	Z30	X31	Y31	Z31	X32	Y32	Z32	X33	Y33	Z33	X34	Y34	Z34	X35	Y35	Z35	X36	Y36	Z36	X37	Y37	Z37	X38	Y38	Z38	X39	Y39	Z39	
																																																																																																																							
	79	0.91667	2018.432329	-0.000992919	1238.089418	1903.964688	-160.4625222	1354.822213	1907.629949	163.6853836	1368.25326	2002.121726	-9.995724821	1608.618296	2010.591949	-119.563877	893.6616195	2015.577474	121.1976851	885.6129284	1832.589423	-5.695750883	914.4906073	1996.480169	-151.852957	639.0891701	2054.192037	-72.89581202	600.0234483	2010.068252	-144.0380039	539.4558443	1993.679907	-128.7803171	463.0797992	1995.314531	-28.27664901	449.2738223	1987.330632	-139.9773559	384.146378	2057.576282	-92.759033	369.2028486	2017.482362	-148.0192813	315.2942658	2075.479997	-126.2596959	74.65407725	2079.200597	-48.83628676	88.44381562	2014.215829	-81.79932302	52.78490326	2140.683324	-50.48617332	69.82934244	2136.983774	-145.6838404	52.0742927	2217.478158	-153.7519611	35.18247288	2218.90805	-57.55224411	46.87622609	2272.863555	-85.7250635	50.25638408	1899.713879	155.8898652	633.3736085	1953.73896	93.1736068	583.5975712	1869.013495	143.1256019	548.2744011	1820.497909	130.2344758	449.6591728	1821.629359	33.90932835	449.9722854	1782.133109	146.028905	390.6665403	1784.394633	97.96343807	332.8891421	1746.885572	155.397025	371.1498777	1586.164664	125.837295	151.021349	1601.673075	46.58044596	164.4415941	1526.214793	79.29350631	191.2664555	1636.434942	55.87355549	85.26856914	1624.850545	143.3687015	96.75104242	1650.192858	152.6622596	42.59834303	1660.918301	62.03409965	31.94199059	1692.435661	84.48225282	1.738643778
	80	0.925	2025.131516	-0.000992919	1240.066534	1910.168396	-160.4625222	1356.311394	1913.776496	163.6853836	1369.757909	2007.245045	-9.995724821	1610.522684	2018.672112	-119.563877	895.4357743	2023.679368	121.1976851	887.4005845	1840.613951	-5.695750883	915.783686	2003.447682	-151.852957	639.9523274	2060.845481	-72.89581202	600.4266004	2016.239028	-144.0380039	540.2135832	1999.240783	-128.7803171	463.9709587	2000.765013	-28.27664901	450.1523583	1992.111663	-139.9773559	385.1086198	2062.188496	-92.759033	369.3924573	2021.50337	-148.0192813	315.928654	2076.84758	-126.2596959	74.66439111	2080.719805	-48.83628676	88.41232243	2015.552313	-81.79932302	52.98370226	2142.077885	-50.48617332	69.59152849	2138.317074	-145.6838404	51.84935377	2218.752675	-153.7519611	34.67980255	2220.22292	-57.55224411	46.36855074	2274.189771	-85.7250635	49.56245738	1910.055284	155.8898652	634.7294127	1964.656826	93.1736068	585.586408	1880.3488	143.1256019	549.2781782	1832.985851	130.2344758	450.104208	1834.113574	33.90932835	450.4304862	1793.996185	146.028905	391.496239	1795.161396	97.96343807	333.6863392	1758.384802	155.397025	372.6516532	1593.51747	125.837295	155.6112366	1609.277643	46.58044596	168.734908	1535.75375	79.29350631	199.1321248	1639.860695	55.87355549	87.12419138	1628.937967	143.3687015	99.23779758	1651.2058	152.6622596	43.75003966	1661.317219	62.03409965	32.50939092	1691.09249	84.48225282	0.587308565
	81	0.93333	2031.734358	-0.000992919	1241.979491	1916.308635	-160.4625222	1357.76502	1919.863089	163.6853836	1371.225816	2012.370864	-9.995724821	1612.361375	2026.57831	-119.563877	897.1791665	2031.607025	121.1976851	889.1573896	1848.466396	-5.695750883	917.0510637	2010.227455	-151.852957	640.795765	2067.30592	-72.89581202	600.8102766	2022.217257	-144.0380039	540.9574944	2004.607157	-128.7803171	464.8538645	2006.020342	-28.27664901	451.0234667	1996.709899	-139.9773559	386.0690102	2066.613387	-92.759033	369.5989585	2025.35476	-148.0192813	316.5764781	2078.09709	-126.2596959	74.73009555	2082.117171	-48.83628676	88.43552143	2016.782815	-81.79932302	53.20735077	2143.357185	-50.48617332	69.43908304	2139.543663	-145.6838404	51.7081634	2219.927883	-153.7519611	34.29964191	2221.432859	-57.55224411	45.98396906	2275.408963	-85.7250635	49.01747783	1920.408798	155.8898652	636.0703376	1975.631208	93.1736068	587.6260537	1891.791988	143.1256019	550.2480392	1845.694749	130.2344758	450.4794577	1846.81823	33.90932835	450.8200584	1806.112533	146.028905	392.2513063	1806.197047	97.96343807	334.4297265	1770.155157	155.397025	374.0756057	1601.260037	125.837295	160.15455	1617.262745	46.58044596	172.9813639	1545.84469	79.29350631	206.8053116	1643.55671	55.87355549	89.1771074	1633.325069	143.3687015	101.8798222	1652.47033	152.6622596	45.23878911	1661.940502	62.03409965	33.4528306	1689.893067	84.48225282	-0.076861164
	82	0.94167	2038.26826	-0.000992919	1243.792145	1922.422557	-160.4625222	1359.157475	1925.928074	163.6853836	1372.631097	2017.558997	-9.995724821	1614.101221	2034.310079	-119.563877	898.8607117	2039.359687	121.1976851	890.8520703	1856.14697	-5.695750883	918.2682602	2016.816516	-151.852957	641.5924592	2073.570522	-72.89581202	601.1477658	2028.000437	-144.0380039	541.6607048	2009.77691	-128.7803171	465.7016292	2011.078466	-28.27664901	451.8602801	2001.123159	-139.9773559	387.0002974	2070.849282	-92.759033	369.7948313	2029.034432	-148.0192813	317.2098901	2079.226348	-126.2596959	74.82136383	2083.390572	-48.83628676	88.48368385	2017.900259	-81.79932302	53.43701553	2144.517418	-50.48617332	69.33151607	2140.656678	-145.6838404	51.61081796	2220.994239	-153.7519611	33.98822736	2222.530335	-57.55224411	45.66850404	2276.514328	-85.7250635	48.55821823	1930.761084	155.8898652	637.3763923	1986.643768	93.1736068	589.6952758	1903.325925	143.1256019	551.1690797	1858.603568	130.2344758	450.7766694	1859.722263	33.90932835	451.1326713	1818.46636	146.028905	392.9196726	1817.49246	97.96343807	335.1062334	1782.18231	155.397025	375.405202	1609.399752	125.837295	164.6115418	1625.634568	46.58044596	177.1432838	1556.442044	79.29350631	214.1907064	1647.61735	55.87355549	91.4263108	1638.091137	143.3687015	104.6662777	1654.130037	152.6622596	47.06852305	1662.945726	62.03409965	34.78533858	1689.034865	84.48225282	-0.213845803
	83	0.95	2044.761299	-0.000992919	1245.473243	1928.546677	-160.4625222	1360.46693	1932.009021	163.6853836	1373.951711	2022.86605	-9.995724821	1615.714088	2041.869837	-119.563877	900.4511389	2046.939365	121.1976851	892.4550918	1863.658971	-5.695750883	919.4151442	2023.215829	-151.852957	642.3195377	2079.640954	-72.89581202	601.4172694	2033.591363	-144.0380039	542.30062	2014.754248	-128.7803171	466.4913778	2015.943844	-28.27664901	452.6399572	2005.355086	-139.9773559	387.8793713	2074.899977	-92.759033	369.9554077	2032.544797	-148.0192813	317.8046987	2080.233148	-126.2596959	74.91120924	2084.538114	-48.83628676	88.52983681	2018.899338	-81.79932302	53.65300492	2145.555373	-50.48617332	69.23469258	2141.650871	-145.6838404	51.52358518	2221.944656	-153.7519611	33.70260187	2223.5096	-57.55224411	45.37904852	2277.500567	-85.7250635	48.13540489	1941.09999	155.8898652	638.6307547	1997.677229	93.1736068	591.7758796	1914.934452	143.1256019	552.0296386	1871.692006	130.2344758	450.9909521	1872.80535	33.90932835	451.3633528	1831.043066	146.028905	393.4922071	1829.040124	97.96343807	335.7052669	1794.452973	155.397025	376.6264414	1617.945242	125.837295	168.9420643	1634.400575	46.58044596	181.1828078	1567.489222	79.29350631	221.2006552	1652.148402	55.87355549	93.85523305	1643.324528	143.3687015	107.5732759	1656.342509	152.6622596	49.21850052	1664.506644	62.03409965	36.49293968	1688.737956	84.48225282	0.182753517
	84	0.95833	2051.239855	-0.000992919	1246.997782	1934.713955	-160.4625222	1361.676032	1938.139734	163.6853836	1375.170149	2028.341101	-9.995724821	1617.177917	2049.262284	-119.563877	901.9241811	2054.350261	121.1976851	893.9398608	1871.008105	-5.695750883	920.4766476	2029.429534	-151.852957	642.9589236	2085.522556	-72.89581202	601.6023843	2038.997128	-144.0380039	542.8594892	2019.548506	-128.7803171	467.2048186	2020.62622	-28.27664901	453.3442441	2009.414185	-139.9773559	388.6878227	2078.773823	-92.759033	370.059861	2035.89221	-148.0192813	318.3411504	2081.116102	-126.2596959	74.97676167	2085.558887	-48.83628676	88.55105374	2019.777054	-81.79932302	53.83649956	2146.469216	-50.48617332	69.12166154	2142.523266	-145.6838404	51.41974252	2222.775115	-153.7519611	33.4108522	2224.367387	-57.55224411	45.08360355	2278.364658	-85.7250635	47.71356753	1951.414162	155.8898652	639.8205768	2008.715029	93.1736068	593.8534803	1926.601984	143.1256019	552.8220452	1884.940067	130.2344758	451.1214556	1886.047469	33.90932835	451.5111689	1843.828747	146.028905	393.9636408	1840.833638	97.96343807	336.2196233	1806.95439	155.397025	377.7287793	1626.905817	125.837295	173.1064663	1643.568952	46.58044596	185.0627923	1578.921592	79.29350631	227.7588265	1657.261093	55.87355549	96.43116057	1649.117641	143.3687015	110.5637346	1659.270445	152.6622596	51.64287043	1666.80341	62.03409965	38.53381154	1689.232673	84.48225282	1.083654269
	85	0.96667	2057.726529	-0.000992919	1248.347969	1940.951298	-160.4625222	1362.772319	1944.347698	163.6853836	1376.273861	2034.022103	-9.995724821	1618.477386	2056.493808	-119.563877	903.2576991	2061.598213	121.1976851	895.2838711	1878.201811	-5.695750883	921.4431291	2035.46414	-151.852957	643.4977044	2091.223395	-72.89581202	601.6922512	2044.22795	-144.0380039	543.3246978	2024.172691	-128.7803171	467.8285742	2025.139115	-28.27664901	453.9597957	2013.312614	-139.9773559	389.4122361	2082.482614	-92.759033	370.092004	2039.086251	-148.0192813	318.8044479	2081.875629	-126.2596959	75.00023297	2086.453858	-48.83628676	88.52944457	2020.533301	-81.79932302	53.97129451	2147.259352	-50.48617332	68.97289026	2143.273797	-145.6838404	51.27984632	2223.485142	-153.7519611	33.09140324	2225.103533	-57.55224411	44.76056197	2279.106555	-85.7250635	47.26967735	1961.692736	155.8898652	640.9375833	2019.74103	93.1736068	595.9180434	1938.313141	143.1256019	553.5431717	1898.327609	130.2344758	451.1718742	1899.42846	33.90932835	451.5797277	1856.809554	146.028905	394.3329948	1852.867029	97.96343807	336.6459189	1819.673683	155.397025	378.7055828	1636.290659	125.837295	177.0661862	1653.147803	46.58044596	188.7473898	1590.670306	79.29350631	233.8023204	1663.065205	55.87355549	99.10632249	1655.561184	143.3687015	113.5885571	1663.07186	152.6622596	54.27298238	1670.011724	62.03409965	40.84051161	1690.745701	84.48225282	2.425822584
	86	0.975	2064.238591	-0.000992919	1249.513685	1947.277817	-160.4625222	1363.748372	1950.652301	163.6853836	1377.255408	2039.93352	-9.995724821	1619.604145	2063.571933	-119.563877	904.4346539	2068.69018	121.1976851	896.4697042	1885.248617	-5.695750883	922.3103658	2041.327722	-151.852957	643.9282215	2096.753308	-72.89581202	601.6813888	2049.295939	-144.0380039	543.6887924	2028.641915	-128.7803171	468.3542758	2029.498198	-28.27664901	454.4782615	2017.064847	-139.9773559	390.0442288	2086.040386	-92.759033	370.0408437	2042.138907	-148.0192813	319.1849903	2082.514944	-126.2596959	74.96950826	2087.226755	-48.83628676	88.45277905	2021.171405	-81.79932302	54.04531099	2147.929232	-50.48617332	68.77600437	2143.905868	-145.6838404	51.09151969	2224.078154	-153.7519611	32.73167199	2225.721483	-57.55224411	44.39734486	2279.729744	-85.7250635	46.79102682	1971.925142	155.8898652	641.9784074	2030.739323	93.1736068	597.9641441	1950.052466	143.1256019	554.1947259	1911.833962	130.2344758	451.1507003	1912.927633	33.90932835	451.5774315	1869.971098	146.028905	394.6038862	1865.13407	97.96343807	336.984919	1832.597247	155.397025	379.554494	1646.10799	125.837295	180.7844344	1663.144331	46.58044596	192.2027044	1602.666696	79.29350631	239.2824265	1669.662178	55.87355549	101.8210183	1662.738471	143.3687015	116.5894893	1667.890601	152.6622596	57.02269307	1674.292232	62.03409965	43.32553612	1693.48625	84.48225282	4.118702863
